<mxfile host="app.diagrams.net" modified="2021-01-30T08:36:20.335Z" agent="5.0 (Windows NT 10.0; Win64; x64) AppleWebKit/537.36 (KHTML, like Gecko) Chrome/88.0.4324.104 Safari/537.36" etag="iSQ-4OnwEi_dTr6yVpek" version="14.2.9" type="github">
  <diagram id="C5RBs43oDa-KdzZeNtuy" name="Page-1">
    <mxGraphModel dx="1248" dy="677" grid="1" gridSize="10" guides="1" tooltips="1" connect="1" arrows="1" fold="1" page="1" pageScale="1" pageWidth="827" pageHeight="1169" math="0" shadow="0">
      <root>
        <mxCell id="WIyWlLk6GJQsqaUBKTNV-0" />
        <mxCell id="WIyWlLk6GJQsqaUBKTNV-1" parent="WIyWlLk6GJQsqaUBKTNV-0" />
        <mxCell id="uDh-hWwRn4knKhBoPoIb-2" value="" style="edgeStyle=orthogonalEdgeStyle;rounded=0;orthogonalLoop=1;jettySize=auto;html=1;" edge="1" parent="WIyWlLk6GJQsqaUBKTNV-1" source="uDh-hWwRn4knKhBoPoIb-0">
          <mxGeometry relative="1" as="geometry">
            <mxPoint x="414" y="130" as="targetPoint" />
          </mxGeometry>
        </mxCell>
        <mxCell id="uDh-hWwRn4knKhBoPoIb-0" value="Start" style="ellipse;whiteSpace=wrap;html=1;" vertex="1" parent="WIyWlLk6GJQsqaUBKTNV-1">
          <mxGeometry x="354" y="50" width="120" height="50" as="geometry" />
        </mxCell>
        <mxCell id="uDh-hWwRn4knKhBoPoIb-7" value="" style="edgeStyle=orthogonalEdgeStyle;rounded=0;orthogonalLoop=1;jettySize=auto;html=1;" edge="1" parent="WIyWlLk6GJQsqaUBKTNV-1" source="uDh-hWwRn4knKhBoPoIb-5" target="uDh-hWwRn4knKhBoPoIb-6">
          <mxGeometry relative="1" as="geometry" />
        </mxCell>
        <mxCell id="uDh-hWwRn4knKhBoPoIb-5" value="Set&amp;nbsp;&lt;span&gt;int material , quan , i = 0 , result,&lt;/span&gt;&lt;div&gt;&lt;span&gt;	&lt;/span&gt;float width , length , height , thick , totalheight , rawprice , rawVolume , cusVolume , calVolume , totalPrice , time1 ,time2, time3, time4,&lt;/div&gt;&lt;div&gt;&lt;span&gt;	&lt;/span&gt;char materialtype[20]&amp;nbsp;&lt;/div&gt;" style="rounded=0;whiteSpace=wrap;html=1;" vertex="1" parent="WIyWlLk6GJQsqaUBKTNV-1">
          <mxGeometry x="244" y="210" width="340" height="80" as="geometry" />
        </mxCell>
        <mxCell id="uDh-hWwRn4knKhBoPoIb-12" value="" style="edgeStyle=orthogonalEdgeStyle;rounded=0;orthogonalLoop=1;jettySize=auto;html=1;" edge="1" parent="WIyWlLk6GJQsqaUBKTNV-1" source="uDh-hWwRn4knKhBoPoIb-6" target="uDh-hWwRn4knKhBoPoIb-11">
          <mxGeometry relative="1" as="geometry" />
        </mxCell>
        <mxCell id="uDh-hWwRn4knKhBoPoIb-6" value="displayMenu()" style="shape=process;whiteSpace=wrap;html=1;backgroundOutline=1;rounded=0;" vertex="1" parent="WIyWlLk6GJQsqaUBKTNV-1">
          <mxGeometry x="354" y="310" width="120" height="30" as="geometry" />
        </mxCell>
        <mxCell id="uDh-hWwRn4knKhBoPoIb-10" value="" style="edgeStyle=orthogonalEdgeStyle;rounded=0;orthogonalLoop=1;jettySize=auto;html=1;" edge="1" parent="WIyWlLk6GJQsqaUBKTNV-1" source="uDh-hWwRn4knKhBoPoIb-8">
          <mxGeometry relative="1" as="geometry">
            <mxPoint x="414" y="210" as="targetPoint" />
          </mxGeometry>
        </mxCell>
        <mxCell id="uDh-hWwRn4knKhBoPoIb-8" value="int main()" style="ellipse;whiteSpace=wrap;html=1;" vertex="1" parent="WIyWlLk6GJQsqaUBKTNV-1">
          <mxGeometry x="354" y="130" width="120" height="40" as="geometry" />
        </mxCell>
        <mxCell id="uDh-hWwRn4knKhBoPoIb-14" value="" style="edgeStyle=orthogonalEdgeStyle;rounded=0;orthogonalLoop=1;jettySize=auto;html=1;" edge="1" parent="WIyWlLk6GJQsqaUBKTNV-1" source="uDh-hWwRn4knKhBoPoIb-11" target="uDh-hWwRn4knKhBoPoIb-13">
          <mxGeometry relative="1" as="geometry" />
        </mxCell>
        <mxCell id="uDh-hWwRn4knKhBoPoIb-11" value="&lt;div&gt;Display &quot;Please enter type of material [1]Alloy [2]Aluminum : &quot;&lt;/div&gt;&lt;div&gt;&lt;span&gt;	&lt;/span&gt;Input material&lt;/div&gt;" style="shape=parallelogram;perimeter=parallelogramPerimeter;whiteSpace=wrap;html=1;fixedSize=1;rounded=0;" vertex="1" parent="WIyWlLk6GJQsqaUBKTNV-1">
          <mxGeometry x="211" y="370" width="406" height="40" as="geometry" />
        </mxCell>
        <mxCell id="uDh-hWwRn4knKhBoPoIb-16" value="" style="edgeStyle=orthogonalEdgeStyle;rounded=0;orthogonalLoop=1;jettySize=auto;html=1;" edge="1" parent="WIyWlLk6GJQsqaUBKTNV-1" source="uDh-hWwRn4knKhBoPoIb-13" target="uDh-hWwRn4knKhBoPoIb-15">
          <mxGeometry relative="1" as="geometry" />
        </mxCell>
        <mxCell id="uDh-hWwRn4knKhBoPoIb-13" value="rawVolume = 1*0.5*0.01" style="whiteSpace=wrap;html=1;rounded=0;" vertex="1" parent="WIyWlLk6GJQsqaUBKTNV-1">
          <mxGeometry x="311" y="440" width="206" height="30" as="geometry" />
        </mxCell>
        <mxCell id="uDh-hWwRn4knKhBoPoIb-18" value="" style="edgeStyle=orthogonalEdgeStyle;rounded=0;orthogonalLoop=1;jettySize=auto;html=1;" edge="1" parent="WIyWlLk6GJQsqaUBKTNV-1" source="uDh-hWwRn4knKhBoPoIb-15" target="uDh-hWwRn4knKhBoPoIb-17">
          <mxGeometry relative="1" as="geometry" />
        </mxCell>
        <mxCell id="uDh-hWwRn4knKhBoPoIb-20" value="" style="edgeStyle=orthogonalEdgeStyle;rounded=0;orthogonalLoop=1;jettySize=auto;html=1;" edge="1" parent="WIyWlLk6GJQsqaUBKTNV-1" source="uDh-hWwRn4knKhBoPoIb-15" target="uDh-hWwRn4knKhBoPoIb-19">
          <mxGeometry relative="1" as="geometry" />
        </mxCell>
        <mxCell id="uDh-hWwRn4knKhBoPoIb-15" value="if(material == 1" style="rhombus;whiteSpace=wrap;html=1;rounded=0;" vertex="1" parent="WIyWlLk6GJQsqaUBKTNV-1">
          <mxGeometry x="331" y="490" width="166" height="75" as="geometry" />
        </mxCell>
        <mxCell id="uDh-hWwRn4knKhBoPoIb-29" value="" style="edgeStyle=orthogonalEdgeStyle;rounded=0;orthogonalLoop=1;jettySize=auto;html=1;" edge="1" parent="WIyWlLk6GJQsqaUBKTNV-1" source="uDh-hWwRn4knKhBoPoIb-17" target="uDh-hWwRn4knKhBoPoIb-26">
          <mxGeometry relative="1" as="geometry">
            <mxPoint x="830.0016666666666" y="527.5" as="targetPoint" />
            <Array as="points">
              <mxPoint x="750" y="528" />
              <mxPoint x="750" y="823" />
            </Array>
          </mxGeometry>
        </mxCell>
        <mxCell id="uDh-hWwRn4knKhBoPoIb-17" value="&lt;div&gt;rawprice = 150;&lt;/div&gt;&lt;div&gt;&lt;span&gt;		&lt;/span&gt;strcpy(materialtype , &quot;Alloy&quot;);&lt;/div&gt;" style="whiteSpace=wrap;html=1;rounded=0;" vertex="1" parent="WIyWlLk6GJQsqaUBKTNV-1">
          <mxGeometry x="530" y="499.38" width="180" height="56.25" as="geometry" />
        </mxCell>
        <mxCell id="uDh-hWwRn4knKhBoPoIb-22" value="" style="edgeStyle=orthogonalEdgeStyle;rounded=0;orthogonalLoop=1;jettySize=auto;html=1;" edge="1" parent="WIyWlLk6GJQsqaUBKTNV-1" source="uDh-hWwRn4knKhBoPoIb-19" target="uDh-hWwRn4knKhBoPoIb-21">
          <mxGeometry relative="1" as="geometry" />
        </mxCell>
        <mxCell id="uDh-hWwRn4knKhBoPoIb-19" value="else if(material == 2)" style="rhombus;whiteSpace=wrap;html=1;rounded=0;" vertex="1" parent="WIyWlLk6GJQsqaUBKTNV-1">
          <mxGeometry x="331" y="645" width="166" height="75" as="geometry" />
        </mxCell>
        <mxCell id="uDh-hWwRn4knKhBoPoIb-27" value="" style="edgeStyle=orthogonalEdgeStyle;rounded=0;orthogonalLoop=1;jettySize=auto;html=1;" edge="1" parent="WIyWlLk6GJQsqaUBKTNV-1" source="uDh-hWwRn4knKhBoPoIb-21" target="uDh-hWwRn4knKhBoPoIb-26">
          <mxGeometry relative="1" as="geometry" />
        </mxCell>
        <mxCell id="uDh-hWwRn4knKhBoPoIb-21" value="&lt;div&gt;rawprice = 100;&lt;/div&gt;&lt;div&gt;&lt;span&gt;		&lt;/span&gt;strcpy(materialtype , &quot;Aluminium&quot;);&lt;/div&gt;" style="whiteSpace=wrap;html=1;rounded=0;" vertex="1" parent="WIyWlLk6GJQsqaUBKTNV-1">
          <mxGeometry x="530" y="652.5" width="190" height="60" as="geometry" />
        </mxCell>
        <mxCell id="uDh-hWwRn4knKhBoPoIb-23" value="TRUE" style="text;html=1;strokeColor=none;fillColor=none;align=center;verticalAlign=middle;whiteSpace=wrap;rounded=0;" vertex="1" parent="WIyWlLk6GJQsqaUBKTNV-1">
          <mxGeometry x="477" y="499" width="40" height="20" as="geometry" />
        </mxCell>
        <mxCell id="uDh-hWwRn4knKhBoPoIb-24" value="FALSE&lt;span style=&quot;color: rgba(0 , 0 , 0 , 0) ; font-family: monospace ; font-size: 0px&quot;&gt;%3CmxGraphModel%3E%3Croot%3E%3CmxCell%20id%3D%220%22%2F%3E%3CmxCell%20id%3D%221%22%20parent%3D%220%22%2F%3E%3CmxCell%20id%3D%222%22%20value%3D%22TRUE%22%20style%3D%22text%3Bhtml%3D1%3BstrokeColor%3Dnone%3BfillColor%3Dnone%3Balign%3Dcenter%3BverticalAlign%3Dmiddle%3BwhiteSpace%3Dwrap%3Brounded%3D0%3B%22%20vertex%3D%221%22%20parent%3D%221%22%3E%3CmxGeometry%20x%3D%22477%22%20y%3D%22499%22%20width%3D%2240%22%20height%3D%2220%22%20as%3D%22geometry%22%2F%3E%3C%2FmxCell%3E%3C%2Froot%3E%3C%2FmxGraphModel%3E&lt;/span&gt;" style="text;html=1;strokeColor=none;fillColor=none;align=center;verticalAlign=middle;whiteSpace=wrap;rounded=0;" vertex="1" parent="WIyWlLk6GJQsqaUBKTNV-1">
          <mxGeometry x="420" y="600" width="40" height="20" as="geometry" />
        </mxCell>
        <mxCell id="uDh-hWwRn4knKhBoPoIb-25" value="TRUE" style="text;html=1;strokeColor=none;fillColor=none;align=center;verticalAlign=middle;whiteSpace=wrap;rounded=0;" vertex="1" parent="WIyWlLk6GJQsqaUBKTNV-1">
          <mxGeometry x="474" y="652.5" width="40" height="20" as="geometry" />
        </mxCell>
        <mxCell id="uDh-hWwRn4knKhBoPoIb-26" value="&lt;div&gt;Display &quot;[PART PARAMETER] &quot;&lt;/div&gt;&lt;div&gt;&lt;span&gt;	&lt;/span&gt;Display &quot;1.Part Quantity : &quot;&lt;/div&gt;&lt;div&gt;Input&amp;nbsp;quan&lt;/div&gt;" style="shape=parallelogram;perimeter=parallelogramPerimeter;whiteSpace=wrap;html=1;fixedSize=1;rounded=0;" vertex="1" parent="WIyWlLk6GJQsqaUBKTNV-1">
          <mxGeometry x="240" y="792.5" width="445" height="60" as="geometry" />
        </mxCell>
      </root>
    </mxGraphModel>
  </diagram>
</mxfile>
